# xmcd CD database file
#
# Track frame offsets:
#	150
#	22669
#	53272
#	72292
#	96683
#	122695
#	143429
#	159055
#	179580
#	208153
#	223131
#	240842
#	262048
#	291274
#	315627
#
# Disc length: 4597 seconds
#
# Revision: 0
# Processed by: cddbd v1.5.2PL0 Copyright (c) Steve Scherf et al.
# Submitted via: CDex 1.70beta2
#
DISCID=d211f30f
DTITLE=Adderley, Nat - Natirally! - In The Bag
DYEAR=1962
DGENRE=Jazz
TTITLE0=Naturally
TTITLE1=Seventh Son
TTITLE2=Love Letters
TTITLE3=This Man's Dream
TTITLE4=Chloe
TTITLE5=Images
TTITLE6=Oleo
TTITLE7=Scotch And Water
TTITLE8=In The Bag
TTITLE9=Sister Wilson
TTITLE10=R.S.V.P.
TTITLE11=Low Brown
TTITLE12=Mozart-In
TTITLE13=New Arrival
TTITLE14=Chatterbox
EXTD=YEAR: 1962
EXTT0=
EXTT1=
EXTT2=
EXTT3=
EXTT4=
EXTT5=
EXTT6=
EXTT7=
EXTT8=
EXTT9=
EXTT10=
EXTT11=
EXTT12=
EXTT13=
EXTT14=
PLAYORDER=
